# xmcd CD database file generated by OrangeCD 4.2
#
# Track frame offsets:
#	150
#	10062
#	20187
#	30937
#	43940
#	50682
#	60270
#	74390
#	84297
#	93157
#	103947
#	114142
#	125425
#	134417
#	142412
#	150155
#	159627
#	168012
#	177705
#	191222
#	202875
#	213972
#	226257
#	232177
#	243595
#
# Disc length: 3381 seconds
#
# Revision: 0
# Processed by: cddbd v1.4PL0 Copyright (c) Steve Scherf et al.
# Submitted via: OrangeCD 4.2
#
DISCID=570d3319
DTITLE=Frank Sinatra - The Memorial Album
DYEAR=1998
DGENRE=Blues
TTITLE0=Chicago
TTITLE1=Nancy (With A Laughing Face)
TTITLE2=Night And Day
TTITLE3=You Make Me Feel So Young
TTITLE4=Somebody Loves Me
TTITLE5=Love Me Or Leave Me
TTITLE6=With A Song In My Heart
TTITLE7=Between The Devil And The Deep Blue Sea
TTITLE8=For You
TTITLE9=Out Of Nowhere
TTITLE10=Candy
TTITLE11=Just One Of Those Things
TTITLE12=They Didn't Believe Me
TTITLE13=s' Wonderful
TTITLE14=Everyday I Love You
TTITLE15=Speak Low
TTITLE16=On The Sunny Side Of The Street
TTITLE17=It's Magic
TTITLE18=I've Had This Feeling Before
TTITLE19=It's Been A Long, Long Time
TTITLE20=That's My Affair
TTITLE21=I Don't Believe In Rumours
TTITLE22=Hair Of Gold, Eyes Of Blue
TTITLE23=Blue Skies
TTITLE24=Lullaby Of Broadway
EXTD=
EXTT0=
EXTT1=
EXTT2=
EXTT3=
EXTT4=
EXTT5=
EXTT6=
EXTT7=
EXTT8=
EXTT9=
EXTT10=
EXTT11=
EXTT12=
EXTT13=
EXTT14=
EXTT15=
EXTT16=
EXTT17=
EXTT18=
EXTT19=
EXTT20=
EXTT21=
EXTT22=
EXTT23=
EXTT24=
PLAYORDER=
